<svg width="149" height="455" viewBox="0 0 149 455" fill="none" xmlns="http://www.w3.org/2000/svg">
<path d="M133.306 301.929H115.834L142.141 82.85C142.849 76.96 140.432 69.156 136.52 64.695L83.506 4.255C81.134 1.551 77.785 0 74.317 0C70.849 0 67.501 1.551 65.129 4.255L12.114 64.694C8.20201 69.155 5.78601 76.96 6.49301 82.849L32.8 301.928H15.328C6.91602 301.928 0.0720215 308.772 0.0720215 317.184V336.168C0.0720215 344.58 6.91602 351.424 15.328 351.424H52.446V384.567C42.432 391.517 35.858 403.09 35.858 416.176C35.858 437.382 53.11 454.634 74.316 454.634C95.522 454.634 112.774 437.382 112.774 416.176C112.774 403.09 106.2 391.517 96.186 384.567V351.424H133.304C141.716 351.424 148.56 344.58 148.56 336.168V317.184C148.562 308.772 141.718 301.929 133.306 301.929Z" fill="#DEB810"/>
</svg>
