<svg width="28" height="21" viewBox="0 0 28 21" fill="none" xmlns="http://www.w3.org/2000/svg">
<path d="M11.3885 1.11933C10.1351 0.397537 8.48508 0 6.74272 0C5.0003 0 3.35044 0.397537 2.09694 1.11933C0.756868 1.891 0.0139085 2.94475 0.000614432 4.08938L0 16.919C0 19.2074 2.96173 21 6.74272 21C10.5237 21 13.4855 19.2074 13.4855 16.919V4.10513C13.4788 2.95441 12.7347 1.89457 11.3885 1.11933ZM12.3125 9.25569C12.3125 10.8377 9.76187 12.1743 6.74272 12.1743C3.72362 12.1743 1.17301 10.8377 1.17301 9.25569V9.03986C2.37763 10.1081 4.40319 10.7964 6.74272 10.7964C9.08231 10.7964 11.1078 10.1081 12.3125 9.03986V9.25569ZM12.3125 11.8065C12.3125 13.3886 9.76187 14.7252 6.74272 14.7252C3.72362 14.7252 1.17301 13.3886 1.17301 11.8065V11.5908C2.37763 12.659 4.40319 13.3473 6.74272 13.3473C9.08231 13.3473 11.1078 12.659 12.3125 11.5908V11.8065ZM1.17301 14.1417C2.37763 15.2099 4.40319 15.8982 6.74272 15.8982C9.08231 15.8982 11.1078 15.2099 12.3125 14.1416V14.3575C12.3125 15.9395 9.76187 17.2761 6.74272 17.2761C3.72362 17.2761 1.17301 15.9395 1.17301 14.3575V14.1417ZM12.3125 6.70474C12.3125 8.28679 9.76187 9.62335 6.74272 9.62335C3.72362 9.6234 1.17301 8.28679 1.17301 6.70474V6.43914C2.37763 7.49987 4.40319 8.18328 6.74272 8.18328C9.08231 8.18328 11.1078 7.49981 12.3125 6.43914V6.70474ZM2.68233 2.13588C3.76055 1.51497 5.20256 1.17306 6.74272 1.17306C8.28293 1.17306 9.72495 1.51502 10.8032 2.13588C11.7624 2.6882 12.3125 3.41161 12.3125 4.12055C12.3125 5.68696 9.76187 7.01028 6.74272 7.01028C3.72362 7.01028 1.17301 5.68696 1.17301 4.12055C1.17301 3.41161 1.72315 2.6882 2.68233 2.13588ZM6.74272 19.8271C3.72362 19.8271 1.17301 18.4954 1.17301 16.919V16.6926C2.37763 17.7608 4.40319 18.4492 6.74272 18.4492C9.08231 18.4492 11.1078 17.7608 12.3125 16.6926V16.9191C12.3125 18.4954 9.76182 19.8271 6.74272 19.8271Z" fill="#DEB810"/>
<path d="M27.367 11.5062C27.3628 10.3533 26.6187 9.29116 25.2702 8.51463C24.0167 7.79284 22.3668 7.3953 20.6244 7.3953C18.882 7.3953 17.2321 7.79284 15.9786 8.51463C14.6263 9.29329 13.8816 10.3592 13.8816 11.5158C13.8816 11.5155 13.8816 11.5161 13.8816 11.5158V16.6783C13.8816 18.9573 16.8434 20.7426 20.6244 20.7426C24.4054 20.7426 27.3671 18.9573 27.3671 16.6783L27.367 11.5062ZM26.1941 14.1C26.1941 15.6821 23.6435 17.0187 20.6244 17.0187C17.6053 17.0187 15.0546 15.6821 15.0546 14.1V13.8344C16.2593 14.8952 18.2848 15.5786 20.6244 15.5786C22.9639 15.5786 24.9895 14.8952 26.1941 13.8344V14.1ZM16.564 9.53118C17.6422 8.91027 19.0842 8.56837 20.6244 8.56837C22.1645 8.56837 23.6066 8.91033 24.6848 9.53118C25.644 10.0835 26.1941 10.8069 26.1941 11.5159C26.1941 13.0823 23.6435 14.4056 20.6244 14.4056C17.6053 14.4056 15.0546 13.0823 15.0546 11.5159C15.0547 10.8069 15.6048 10.0835 16.564 9.53118ZM20.6244 19.5696C17.6053 19.5696 15.0546 18.2456 15.0546 16.6783V16.4352C16.2593 17.5034 18.2848 18.1917 20.6244 18.1917C22.9639 18.1917 24.9895 17.5034 26.1941 16.4352V16.6783C26.1941 18.2456 23.6435 19.5696 20.6244 19.5696Z" fill="#DEB810"/>
</svg>
