<svg width="25" height="32" viewBox="0 0 25 32" fill="none" xmlns="http://www.w3.org/2000/svg">
<path d="M13.552 22C19.342 22 24.052 17.29 24.052 11.5C24.052 5.71 19.342 1 13.552 1C7.762 1 3.052 5.71 3.052 11.5C3.052 17.29 7.762 22 13.552 22ZM13.552 2C18.79 2 23.052 6.262 23.052 11.5C23.052 16.738 18.79 21 13.552 21C8.314 21 4.052 16.738 4.052 11.5C4.052 6.262 8.313 2 13.552 2Z" fill="#DEB810"/>
<path d="M9.052 28C7.911 28 7.052 28.859 7.052 30V31.5C7.052 31.776 7.276 32 7.552 32H19.552C19.828 32 20.052 31.776 20.052 31.5V30.075C20.052 28.911 19.173 28 18.052 28H9.052ZM19.052 30.075V31H8.052V30C8.052 29.411 8.463 29 9.052 29H18.052C18.622 29 19.052 29.462 19.052 30.075Z" fill="#DEB810"/>
<path d="M13.055 24.978C13.055 24.984 13.052 24.988 13.052 24.994V26.598C13.052 26.874 13.276 27.098 13.552 27.098C13.828 27.098 14.052 26.874 14.052 26.598V24.994C14.052 24.987 14.048 24.981 14.048 24.974C17.281 24.845 20.316 23.598 22.686 21.393L23.866 22.572C24.061 22.767 24.378 22.767 24.573 22.572C24.768 22.377 24.768 22.06 24.573 21.865L23.047 20.339C22.852 20.144 22.535 20.144 22.34 20.339C19.978 22.7 16.839 24 13.5 24C10.161 24 7.022 22.7 4.661 20.339C2.3 17.978 1 14.839 1 11.5C1 8.16099 2.3 5.02199 4.661 2.66099C4.856 2.46599 4.856 2.14899 4.661 1.95399L3.135 0.427988C2.94 0.232988 2.623 0.232988 2.428 0.427988C2.233 0.622988 2.233 0.939988 2.428 1.13499L3.607 2.31499C1.276 4.81799 0 8.06199 0 11.5C0 15.105 1.404 18.496 3.954 21.046C6.398 23.49 9.617 24.867 13.055 24.978Z" fill="#DEB810"/>
</svg>
