<svg width="490" height="490" viewBox="0 0 490 490" fill="none" xmlns="http://www.w3.org/2000/svg">
<path d="M483 88.5L379.5 2.6C377.9 1.1 375.3 0.5 373.2 0.5H115.7C113.6 0.5 111.6 1 109.4 2.6L7.3 88.4C3 91.9 0 95.9 0 101.5V489.5H254.9V358.4C254.9 327.2 280.9 302.2 314.2 302.2C346.5 302.2 373.5 327.2 373.5 358.4V489.5H489H490V99.8C490 94.9 486.7 91.8 483 88.5V88.5ZM375.3 139.9C375.3 159.7 358.6 176.3 338.8 176.3C319 176.3 302.3 159.7 302.3 139.9V108.7H375.3V139.9ZM281.5 139.9C281.5 159.7 264.8 176.3 245 176.3C225.2 176.3 208.5 159.7 208.5 139.9V108.7H281.5V139.9ZM187.7 139.9C187.7 159.7 171 176.3 151.2 176.3C131.4 176.3 114.7 159.7 114.7 139.9V108.7H187.7V139.9ZM93.8 139.9C93.8 159.7 77.1 176.3 57.3 176.3C37.5 176.3 20.8 159.7 20.8 139.9V108.7H93.8V139.9ZM261.7 21.3L278.1 87.9H211.7L227.4 21.3H261.7V21.3ZM316.9 21.3L365.1 87.9H300L290.1 47.9L283.7 21.3H316.9V21.3ZM189.6 87.9H124.8L173 21.3H205.3L189.6 87.9ZM396.2 108.7H469.2V139.9C469.2 159.7 452.5 176.3 432.7 176.3C412.9 176.3 396.2 159.7 396.2 139.9V108.7ZM450.2 87.9H390.8L342.6 21.3H370.2L450.2 87.9V87.9ZM119.9 21.3H147.5L99.6 87.9H39.8L119.9 21.3ZM394.3 468.7V358.4C394.3 315.7 357.9 281.4 314.2 281.4C269.5 281.4 234.1 315.7 234.1 358.4V469.7H20.8V183.7C30.8 192 43.5 197.1 57.3 197.1C76.5 197.1 93.8 187.3 104.2 172.4C114.6 187.2 131.9 197.1 151.1 197.1C170.3 197.1 187.6 187.3 198 172.4C208.4 187.2 225.7 197.1 244.9 197.1C264.1 197.1 281.4 187.3 291.8 172.4C302.2 187.2 319.5 197.1 338.7 197.1C357.9 197.1 375.2 187.3 385.6 172.4C396 187.2 413.3 197.1 432.5 197.1C446.3 197.1 459.1 192 469 183.7V468.6H394.3V468.7Z" fill="white"/>
</svg>
