<svg width="456" height="470" viewBox="0 0 456 470" fill="none" xmlns="http://www.w3.org/2000/svg">
<path d="M403.889 162.653C360.83 100.218 296.291 57.919 221.824 43.169C216.811 31.661 200.268 0 169.994 0C165.851 0 162.494 3.358 162.494 7.5V63.086L148.528 77.052V38.467C148.528 34.325 145.171 30.967 141.028 30.967C136.885 30.967 133.528 34.325 133.528 38.467V92.052L11.71 213.87C4.77203 220.807 0.952026 230.03 0.952026 239.84C0.952026 249.65 4.77203 258.873 11.709 265.81C18.647 272.747 27.869 276.567 37.68 276.567C46.733 276.567 55.285 273.314 62.003 267.36L151.168 246.813C168.19 255.206 187.784 258.353 206.664 255.678C210.967 255.069 215.18 254.162 219.296 252.999C234.805 248.619 248.865 240.394 260.473 228.787C284.797 204.463 294.089 168.769 284.722 135.635C283.595 131.648 279.447 129.332 275.465 130.458C271.479 131.585 269.161 135.729 270.288 139.715C278.178 167.628 270.352 197.694 249.865 218.181C224.797 243.249 186.942 248.911 155.674 232.27C154.076 231.42 152.228 231.177 150.466 231.582L56.662 253.198C55.292 253.514 54.038 254.209 53.043 255.203C44.572 263.675 30.787 263.675 22.316 255.203C18.212 251.099 15.952 245.643 15.952 239.839C15.952 234.035 18.212 228.579 22.316 224.475L146.325 100.465C146.335 100.455 175.296 71.494 175.296 71.494C176.702 70.088 177.492 68.18 177.492 66.191V16.085C198.258 22.184 209.215 51.942 209.335 52.277C209.359 52.343 209.389 52.403 209.415 52.468C209.468 52.603 209.522 52.738 209.582 52.87C209.632 52.98 209.687 53.087 209.742 53.193C209.796 53.297 209.85 53.401 209.909 53.502C209.979 53.624 210.054 53.741 210.13 53.857C210.184 53.939 210.238 54.02 210.295 54.1C210.381 54.221 210.472 54.339 210.565 54.454C210.623 54.526 210.682 54.598 210.743 54.668C210.839 54.778 210.938 54.885 211.04 54.989C211.11 55.061 211.181 55.131 211.254 55.2C211.352 55.292 211.452 55.381 211.554 55.467C211.641 55.541 211.73 55.613 211.821 55.683C211.916 55.756 212.012 55.826 212.11 55.894C212.214 55.967 212.32 56.038 212.429 56.105C212.523 56.163 212.618 56.219 212.714 56.273C212.829 56.338 212.945 56.401 213.064 56.46C213.166 56.51 213.269 56.557 213.373 56.603C213.488 56.654 213.603 56.703 213.722 56.748C213.844 56.794 213.967 56.835 214.091 56.876C214.195 56.909 214.298 56.943 214.404 56.972C214.553 57.013 214.705 57.047 214.857 57.079C214.92 57.092 214.98 57.111 215.043 57.123C250.136 63.568 282.96 76.456 312.216 94.897C343.191 114.421 370.164 140.172 391.542 171.17C431.951 229.763 447.806 300.372 436.47 370.634C422.172 371.103 409.45 373.159 397.712 376.296C395.88 359.923 389.442 344.931 379.719 332.64V260.327C379.719 256.185 376.362 252.827 372.219 252.827C368.076 252.827 364.719 256.185 364.719 260.327V317.808C360.071 314.217 355.049 311.091 349.719 308.499V200.326C349.719 196.184 346.362 192.826 342.219 192.826C338.076 192.826 334.719 196.184 334.719 200.326V302.874C329.872 301.559 324.863 300.642 319.719 300.196V276.405C319.719 272.263 316.362 268.905 312.219 268.905C308.075 268.906 304.719 272.264 304.719 276.405V307.372C304.719 311.514 308.076 314.872 312.219 314.872C349.706 314.872 380.485 344.061 383.072 380.902C365.607 387.229 350.012 395.767 333.972 404.554C291.872 427.615 244.284 453.673 143.803 454.943C145.875 415.992 163.735 386.07 182.583 354.505C196.174 331.744 210.226 308.209 219.826 279.552C221.142 275.625 219.024 271.374 215.097 270.058C215.056 270.044 215.014 270.036 214.973 270.023C211.077 268.791 206.905 270.9 205.603 274.787C196.517 301.909 182.886 324.738 169.704 346.815C148.565 382.218 128.6 415.657 128.6 462.496C128.6 466.638 131.957 469.996 136.1 469.996C245.727 469.996 298.653 441.005 341.179 417.709C372.7 400.442 399.924 385.53 442.805 385.53C446.424 385.53 449.528 382.945 450.182 379.385C464.173 303.196 447.734 226.227 403.889 162.653Z" fill="#DEB810"/>
<path d="M182.304 126.48H146.936C144.947 126.48 143.04 127.27 141.632 128.677L105.285 165.023C102.356 167.952 102.356 172.701 105.285 175.629C106.75 177.094 108.669 177.826 110.589 177.826C112.508 177.826 114.428 177.094 115.893 175.629L150.042 141.48H182.304C186.447 141.48 189.804 138.122 189.804 133.98C189.804 129.838 186.447 126.48 182.304 126.48Z" fill="#DEB810"/>
<path d="M319.718 246.406V122.471C319.718 118.329 316.361 114.971 312.218 114.971C308.074 114.972 304.718 118.33 304.718 122.471V246.406C304.718 250.547 308.074 253.905 312.216 253.906C316.361 253.906 319.718 250.548 319.718 246.406Z" fill="#DEB810"/>
</svg>
