<svg width="34" height="34" viewBox="0 0 34 34" fill="none" xmlns="http://www.w3.org/2000/svg">
<path d="M22.86 0.00522554C19.8398 0.354279 18.1249 3.66558 17.9067 6.54173C17.5499 9.09863 18.6661 12.3613 21.3517 12.9492C23.6791 13.1568 25.5307 10.9703 26.2913 8.8846C27.1895 6.27395 27.2157 2.78762 25.0362 0.831802C24.4308 0.307144 23.6535 -0.0115702 22.86 0.00522554ZM10.5401 0.142117C8.02696 0.323915 6.73886 3.24448 6.91366 5.58883C6.93503 8.72344 8.65643 12.249 11.7955 12.9931C14.1366 13.2463 15.6974 10.7634 15.8429 8.59243C16.1416 5.27001 14.6696 1.24526 11.336 0.242152C11.0769 0.170594 10.8082 0.135079 10.5401 0.142117V0.142117ZM30.7337 10.2088C27.3619 10.4559 25.2297 14.0493 25.0831 17.2964C24.9057 19.411 26.2719 22.0704 28.5722 21.9246C32.0124 21.5599 34.0865 17.7257 34.001 14.3943C33.9789 12.4764 32.7636 10.2887 30.7337 10.2088ZM0.026122 14.5921C-0.286073 18.1901 2.23163 22.2568 5.88902 22.4833C8.10577 22.3353 9.15105 19.7606 8.89699 17.7237C8.69455 14.7182 6.68501 11.6405 4.0741 11.2385C1.46319 10.8364 -0.0152753 12.681 0.026122 14.5921ZM17.387 17.6614C13.9582 17.6694 10.8232 19.9114 9.1471 22.9448C7.74281 25.2117 6.5948 27.7781 6.37646 30.4864C6.42423 32.5751 8.41713 34.3134 10.4155 33.8974C13.2658 33.5274 15.8129 31.548 18.777 31.9188C21.2402 32.1155 23.2717 34.0256 25.7587 33.9978C28.1736 34.0885 29.5666 31.3212 28.6457 29.1537C27.6547 26.0503 25.7334 23.3512 23.6712 20.9203C22.0262 19.1285 19.8717 17.5821 17.387 17.6614Z" fill="white"/>
</svg>
