<svg xmlns="http://www.w3.org/2000/svg" width="32" height="32" shape-rendering="crispEdges" xmlns:v="https://vecta.io/nano"><style><![CDATA[.B{fill:#bfcfd8}.C{fill:#8da2ad}.D{fill:#9badb7}.E{fill:#503c01}.F{fill:#f1faff}.G{fill:#cfb158}.H{fill:#faf3dd}.I{fill:#2a2000}.J{fill:#cddde6}]]></style><path d="M23 3h1v1h-1z"/><path d="M24 3h1v1h-1z"/><path d="M25 3h1v1h-1z"/><path d="M26 3h1v1h-1z"/><path d="M27 3h1v1h-1z"/><path d="M28 3h1v1h-1zm-6 1h1v1h-1z"/><path d="M23 4h1v1h-1z"/><g class="B"><path d="M24 4h1v1h-1z"/><path d="M25 4h1v1h-1z"/><path d="M26 4h1v1h-1z"/></g><path d="M27 4h1v1h-1z" class="F"/><path d="M28 4h1v1h-1zm-7 1h1v1h-1z"/><path d="M22 5h1v1h-1z"/><g class="B"><path d="M23 5h1v1h-1z"/><path d="M24 5h1v1h-1z"/><path d="M25 5h1v1h-1z"/></g><path fill="#fff" d="M26 5h1v1h-1z"/><path d="M27 5h1v1h-1z" class="C"/><path d="M28 5h1v1h-1zm-8 1h1v1h-1z"/><path d="M21 6h1v1h-1z"/><g class="B"><path d="M22 6h1v1h-1z"/><path d="M23 6h1v1h-1z"/><path d="M24 6h1v1h-1z"/></g><path d="M25 6h1v1h-1z" class="F"/><path d="M26 6h1v1h-1z" class="C"/><path d="M27 6h1v1h-1z" class="D"/><path d="M28 6h1v1h-1zm-9 1h1v1h-1z"/><path d="M20 7h1v1h-1z"/><g class="B"><path d="M21 7h1v1h-1z"/><path d="M22 7h1v1h-1z"/><path d="M23 7h1v1h-1z"/></g><path d="M24 7h1v1h-1z" class="J"/><path d="M25 7h1v1h-1z" class="C"/><g class="D"><path d="M26 7h1v1h-1z"/><path d="M27 7h1v1h-1z"/></g><path d="M28 7h1v1h-1zM18 8h1v1h-1z"/><path d="M19 8h1v1h-1z"/><g class="B"><path d="M20 8h1v1h-1z"/><path d="M21 8h1v1h-1z"/><path d="M22 8h1v1h-1z"/></g><path d="M23 8h1v1h-1z" class="F"/><path d="M24 8h1v1h-1z" class="C"/><g class="D"><path d="M25 8h1v1h-1z"/><path d="M26 8h1v1h-1z"/></g><path d="M27 8h1v1h-1z"/><path d="M28 8h1v1h-1zM17 9h1v1h-1z"/><path d="M18 9h1v1h-1z"/><g class="B"><path d="M19 9h1v1h-1z"/><path d="M20 9h1v1h-1z"/><path d="M21 9h1v1h-1z"/></g><path fill="#fff" d="M22 9h1v1h-1z"/><path d="M23 9h1v1h-1z" class="C"/><g class="D"><path d="M24 9h1v1h-1z"/><path d="M25 9h1v1h-1z"/></g><path d="M26 9h1v1h-1z"/><path d="M27 9h1v1h-1zm-11 1h1v1h-1z"/><path d="M17 10h1v1h-1z"/><g class="B"><path d="M18 10h1v1h-1z"/><path d="M19 10h1v1h-1z"/><path d="M20 10h1v1h-1z"/></g><path d="M21 10h1v1h-1z" class="F"/><path d="M22 10h1v1h-1z" class="C"/><g class="D"><path d="M23 10h1v1h-1z"/><path d="M24 10h1v1h-1z"/></g><path d="M25 10h1v1h-1z"/><path d="M26 10h1v1h-1zm-11 1h1v1h-1z"/><path d="M16 11h1v1h-1z"/><g class="B"><path d="M17 11h1v1h-1z"/><path d="M18 11h1v1h-1z"/><path d="M19 11h1v1h-1z"/></g><path d="M20 11h1v1h-1z" class="J"/><path d="M21 11h1v1h-1z" class="C"/><g class="D"><path d="M22 11h1v1h-1z"/><path d="M23 11h1v1h-1z"/></g><path d="M24 11h1v1h-1z"/><path d="M25 11h1v1h-1zm-11 1h1v1h-1z"/><path d="M15 12h1v1h-1z"/><g class="B"><path d="M16 12h1v1h-1z"/><path d="M17 12h1v1h-1z"/><path d="M18 12h1v1h-1z"/></g><path d="M19 12h1v1h-1z" class="F"/><path d="M20 12h1v1h-1z" class="C"/><g class="D"><path d="M21 12h1v1h-1z"/><path d="M22 12h1v1h-1z"/></g><path d="M23 12h1v1h-1z"/><path d="M24 12h1v1h-1zm-11 1h1v1h-1z"/><path d="M14 13h1v1h-1z"/><g class="B"><path d="M15 13h1v1h-1z"/><path d="M16 13h1v1h-1z"/><path d="M17 13h1v1h-1z"/></g><path fill="#fff" d="M18 13h1v1h-1z"/><path d="M19 13h1v1h-1z" class="C"/><g class="D"><path d="M20 13h1v1h-1z"/><path d="M21 13h1v1h-1z"/></g><path d="M22 13h1v1h-1z"/><path d="M23 13h1v1h-1zM7 14h1v1H7z"/><path d="M8 14h1v1H8z"/><path d="M9 14h1v1H9z"/><path d="M10 14h1v1h-1zm2 0h1v1h-1z"/><path d="M13 14h1v1h-1z"/><g class="B"><path d="M14 14h1v1h-1z"/><path d="M15 14h1v1h-1z"/><path d="M16 14h1v1h-1z"/></g><path d="M17 14h1v1h-1z" class="F"/><path d="M18 14h1v1h-1z" class="C"/><g class="D"><path d="M19 14h1v1h-1z"/><path d="M20 14h1v1h-1z"/></g><path d="M21 14h1v1h-1z"/><path d="M22 14h1v1h-1zM7 15h1v1H7z"/><path d="M8 15h1v1H8z" class="G"/><path d="M9 15h1v1H9z" class="H"/><path d="M10 15h1v1h-1z"/><path d="M11 15h1v1h-1z"/><path d="M12 15h1v1h-1z"/><g class="B"><path d="M13 15h1v1h-1z"/><path d="M14 15h1v1h-1z"/><path d="M15 15h1v1h-1z"/></g><path d="M16 15h1v1h-1z" class="J"/><path d="M17 15h1v1h-1z" class="C"/><g class="D"><path d="M18 15h1v1h-1z"/><path d="M19 15h1v1h-1z"/></g><path d="M20 15h1v1h-1z"/><path d="M21 15h1v1h-1zM7 16h1v1H7z"/><path d="M8 16h1v1H8z"/><path d="M9 16h1v1H9z" class="G"/><path d="M10 16h1v1h-1z" class="H"/><path d="M11 16h1v1h-1z"/><g class="B"><path d="M12 16h1v1h-1z"/><path d="M13 16h1v1h-1z"/><path d="M14 16h1v1h-1z"/></g><path fill="#fff" d="M15 16h1v1h-1z"/><path d="M16 16h1v1h-1z" class="C"/><g class="D"><path d="M17 16h1v1h-1z"/><path d="M18 16h1v1h-1z"/></g><path d="M19 16h1v1h-1z"/><path d="M20 16h1v1h-1zM8 17h1v1H8z"/><path d="M9 17h1v1H9z"/><path d="M10 17h1v1h-1z" class="G"/><path fill="#889ca8" d="M11 17h1v1h-1z"/><g class="B"><path d="M12 17h1v1h-1z"/><path d="M13 17h1v1h-1z"/></g><path d="M14 17h1v1h-1z" class="F"/><path d="M15 17h1v1h-1z" class="C"/><g class="D"><path d="M16 17h1v1h-1z"/><path d="M17 17h1v1h-1z"/></g><path d="M18 17h1v1h-1z"/><path d="M19 17h1v1h-1zM9 18h1v1H9z"/><g class="H"><path d="M10 18h1v1h-1z"/><path d="M11 18h1v1h-1z"/></g><path fill="#889ca8" d="M12 18h1v1h-1z"/><path d="M13 18h1v1h-1z" class="J"/><path d="M14 18h1v1h-1z" class="C"/><g class="D"><path d="M15 18h1v1h-1z"/><path d="M16 18h1v1h-1z"/></g><path d="M17 18h1v1h-1z"/><path d="M18 18h1v1h-1zm-9 1h1v1H9z"/><g fill="#fce7aa"><path d="M10 19h1v1h-1z"/><path d="M11 19h1v1h-1z"/></g><path d="M12 19h1v1h-1z" class="G"/><path fill="#6c7d87" d="M13 19h1v1h-1z"/><g class="D"><path d="M14 19h1v1h-1z"/><path d="M15 19h1v1h-1z"/></g><path d="M16 19h1v1h-1z"/><path d="M17 19h1v1h-1zm-9 1h1v1H8z"/><path d="M9 20h1v1H9z"/><g fill="#bc941f"><path d="M10 20h1v1h-1z"/><path d="M11 20h1v1h-1z"/><path d="M12 20h1v1h-1z"/></g><path d="M13 20h1v1h-1z" class="G"/><path fill="#6c7d87" d="M14 20h1v1h-1z"/><path d="M15 20h1v1h-1z"/><path d="M16 20h1v1h-1zm-9 1h1v1H7z"/><path d="M8 21h1v1H8z"/><path d="M9 21h1v1H9z" class="E"/><g fill="#2e2300"><path d="M10 21h1v1h-1z"/><path d="M11 21h1v1h-1z"/></g><path d="M12 21h1v1h-1z" class="E"/><g fill="#8c6b0b"><path d="M13 21h1v1h-1z"/><path d="M14 21h1v1h-1z"/></g><path d="M15 21h1v1h-1z" class="H"/><path d="M16 21h1v1h-1z"/><path d="M17 21h1v1h-1zM6 22h1v1H6z"/><path d="M7 22h1v1H7z"/><path d="M8 22h1v1H8z" class="E"/><g class="I"><path d="M9 22h1v1H9z"/><path d="M10 22h1v1h-1z"/></g><path d="M11 22h1v1h-1z"/><path d="M12 22h1v1h-1z"/><path d="M13 22h1v1h-1z"/><path d="M14 22h1v1h-1z"/><path d="M15 22h1v1h-1z" class="E"/><path d="M16 22h1v1h-1z" class="H"/><path d="M17 22h1v1h-1zM5 23h1v1H5z"/><path d="M6 23h1v1H6z"/><path d="M7 23h1v1H7z" class="E"/><g class="I"><path d="M8 23h1v1H8z"/><path d="M9 23h1v1H9z"/></g><path d="M10 23h1v1h-1z"/><path d="M11 23h1v1h-1zm3 0h1v1h-1z"/><path d="M15 23h1v1h-1z"/><path d="M16 23h1v1h-1z" class="E"/><path d="M17 23h1v1h-1zM4 24h1v1H4z"/><path d="M5 24h1v1H5z"/><path d="M6 24h1v1H6z" class="E"/><g class="I"><path d="M7 24h1v1H7z"/><path d="M8 24h1v1H8z"/></g><path d="M9 24h1v1H9z"/><path d="M10 24h1v1h-1zm5 0h1v1h-1z"/><path d="M16 24h1v1h-1z"/><path d="M17 24h1v1h-1zM2 25h1v1H2z"/><path d="M3 25h1v1H3z"/><path d="M4 25h1v1H4z"/><path d="M5 25h1v1H5z" class="E"/><g class="I"><path d="M6 25h1v1H6z"/><path d="M7 25h1v1H7z"/></g><path d="M8 25h1v1H8z"/><path d="M9 25h1v1H9zm-7 1h1v1H2z"/><path fill="#fdf1f1" d="M3 26h1v1H3z"/><path fill="#670d0d" d="M4 26h1v1H4z"/><g class="I"><path d="M5 26h1v1H5z"/><path d="M6 26h1v1H6z"/></g><path d="M7 26h1v1H7z"/><path d="M8 26h1v1H8zm-6 1h1v1H2z"/><g fill="#df6b6b"><path d="M3 27h1v1H3z"/><path d="M4 27h1v1H4z"/></g><path fill="#670d0d" d="M5 27h1v1H5z"/><path d="M6 27h1v1H6z"/><path d="M7 27h1v1H7zm-5 1h1v1H2z"/><g fill="#a04343"><path d="M3 28h1v1H3z"/><path d="M4 28h1v1H4z"/><path d="M5 28h1v1H5z"/></g><path d="M6 28h1v1H6zm-4 1h1v1H2z"/><path d="M3 29h1v1H3z"/><path d="M4 29h1v1H4z"/><path d="M5 29h1v1H5z"/><path d="M6 29h1v1H6z"/></svg>