<svg width="357" height="360" viewBox="0 0 357 360" fill="none" xmlns="http://www.w3.org/2000/svg">
<path d="M351.203 286.132L272.27 207.199C268.692 203.621 263.92 201.651 258.834 201.651C256.683 201.651 254.596 202.024 252.624 202.701L233.695 183.772C230.87 180.946 227.102 179.39 223.088 179.39C219.074 179.39 215.307 180.946 212.482 183.771L207.504 188.749L198.6 179.845L237.565 140.675C246.67 144.624 256.566 146.512 266.789 146.512C266.791 146.512 266.793 146.512 266.796 146.512C286.414 146.512 304.86 139.075 318.735 125.2C337.325 106.612 344.577 79.389 337.661 53.993C336.802 50.834 333.836 48.592 330.608 48.592C329.219 48.592 327.155 49.027 325.218 50.964C324.953 51.226 298.706 77.286 290.032 85.96C289.077 86.915 287.501 87.064 286.582 87.064C285.923 87.064 285.56 86.995 285.56 86.995V86.997L284.967 86.929C274.185 85.939 261.251 83.945 257.987 82.44C256.431 79.151 254.56 65.907 253.56 54.951V54.804L253.326 54.496C253.268 54.011 253.016 51.538 255.189 49.365C264.217 40.336 289.036 15.293 289.272 15.054C291.372 12.955 292.172 10.315 291.504 7.809C290.703 4.805 288.149 3.123 286.035 2.552C279.772 0.859 273.292 0 266.788 0C247.168 0 228.72 7.64 214.847 21.512C192.946 43.413 187.811 75.808 199.401 102.653L160.405 141.648L93.682 74.927C93.641 74.886 93.596 74.852 93.554 74.812C94.184 72.245 94.461 69.579 94.345 66.865C94.016 59.135 90.622 51.665 84.787 45.831L61.041 22.083C60.522 21.564 57.723 18.974 53.576 18.974C51.65 18.974 48.773 19.557 45.996 22.333L19.971 48.359C16.95 51.38 15.873 55.262 17.017 59.011C17.784 61.523 19.275 63.15 19.714 63.589L43.372 87.247C49.551 93.426 57.456 96.829 65.631 96.829C65.631 96.829 65.631 96.829 65.632 96.829C67.919 96.829 70.171 96.548 72.353 96.011C72.394 96.053 72.428 96.098 72.469 96.139L139.191 162.861L107.499 194.553C106.071 195.981 104.83 197.544 103.773 199.207C94.492 195.074 84.369 192.88 73.904 192.88C54.281 192.88 35.833 200.522 21.958 214.397C3.36898 232.986 -3.88301 260.311 3.03199 285.707C3.89099 288.865 6.85698 291.158 10.084 291.158C10.084 291.158 10.084 291.158 10.085 291.158C11.474 291.158 13.538 290.748 15.475 288.811C15.74 288.549 41.988 262.502 50.662 253.828C51.617 252.873 53.301 252.731 54.219 252.731C54.879 252.731 55.344 252.803 55.351 252.803H55.35L55.837 252.872C66.616 253.86 79.65 255.854 82.915 257.361C84.471 260.651 86.49 273.895 87.469 284.851L87.539 285.352C87.545 285.378 87.901 288.123 85.587 290.438C76.558 299.467 51.699 324.51 51.463 324.749C49.363 326.848 48.543 329.489 49.211 331.994C50.013 334.998 52.557 336.679 54.67 337.25C60.934 338.944 67.408 339.803 73.913 339.803C93.534 339.803 111.979 332.163 125.851 318.291C139.727 304.416 147.369 285.967 147.368 266.344C147.368 255.879 145.175 245.758 141.042 236.476C142.706 235.419 144.269 234.178 145.696 232.75L177.389 201.057L186.293 209.961L181.314 214.94C178.488 217.765 176.932 221.532 176.932 225.546C176.932 229.561 178.488 233.328 181.314 236.153L200.243 255.082C199.566 257.054 199.193 259.141 199.193 261.291C199.193 266.377 201.164 271.148 204.742 274.726L283.676 353.66C287.253 357.237 292.025 359.208 297.111 359.208C302.197 359.208 306.968 357.237 310.546 353.66L351.205 313C354.783 309.422 356.754 304.651 356.754 299.565C356.752 294.482 354.782 289.71 351.203 286.132Z" fill="white"/>
</svg>
